<svg version="1.1" xmlns="http://www.w3.org/2000/svg" xmlns:xlink="http://www.w3.org/1999/xlink" width="1501.65985" height="891" viewBox="0,0,1501.65985,891"><g transform="translate(509.5,241.33334)"><g stroke="none" stroke-miterlimit="10"><path d="M-255.69874,178.53416l-0.25674,0.31255l-0.20118,0.3509l-1.59591,2.23427l64.12923,2.25015l0.33997,0.04609l0.34284,-0.01278l45.44054,2.84003v-13.88872l0.1,-1h-78.1l-2.05208,-0.20521l-2.05789,-0.13494l-6,-1l-3.78888,-1.02749l-1.51356,-0.77494l-2.88791,-0.91888l-6.07492,2.19372zM-283.67428,232.91691l-3.34096,8.3524l-3.76768,11.30304l-0.72524,1.61784l-0.63116,1.65681l-4.46028,8.92055l-4.56676,11.87358l-0.54326,1.07789l-0.4297,1.12797l-5.84894,11.69788l-6.85716,14.69391l-0.17322,0.29141l-0.12068,0.31679l-5.61493,11.22986l-4.53604,10.88651l-4.79349,12.46307l-2.63281,7.24023h20.21659l0.85809,0.08581l0.86196,-0.02657l20.49541,1.41348l-1.8506,-0.79932l-1.5452,-0.31272l-0.77325,-0.68868l-2.66102,-1.14936l-7.43813,-7.8452l-0.30794,-0.27426l-0.01753,-0.06902l-0.049,-0.05168l-0.06744,-0.40681l-2.66111,-10.47814l0.44919,-2.86361l-0.16936,-1.02153l0.56073,-1.47344l0.55698,-3.55076l0.67192,-1.76378l0.00885,-1.33346l1.59144,-2.32065l0.12533,-0.25066l1.39371,-2.2067l0.41605,-1.09326l0.84753,-0.59576l0.2062,-0.21193l1.84172,-2.6856l2.0155,-1.27877l1.66455,-1.71078l3.00594,-1.25247l0.92893,-0.58937l3.67822,-1.37188l0.27102,-0.07132l2.59745,-1.08227l0.8565,0.17334l15.27503,-4.01974l0.99667,-0.15845l0.97089,-0.27538l56,-10l0.96171,-0.07424l0.94547,-0.191l39.06412,-3.90641l0.99123,-1.40783l2.33341,-1.44038l2.59884,-2.24445l2.14051,-0.68107l0.60122,-0.37113l3.69488,-1.32637l8,-2l1.33544,-0.19543l1.31202,-0.31654l2.1183,-0.29218l1.61996,-1.61996l1.9066,-1.55994l0.59279,-0.48693l-0.46475,-0.87483l-0.01852,-0.06442l-30.69315,-3.33621h-9.64529l-3.90625,-0.39062l-0.78498,-0.24977l-0.8216,-0.05963l-3.77194,-1.08806l-1.46798,-0.58719l-0.1535,-0.01535l-8.59375,-2.73437l-8.59375,-7.42187l-3.90625,-14.45312l0.4421,-1.63577l-69.45486,-2.43701zM-351.5,416.26971v18.34001l4.15524,12.46573l1.50937,3.01875l1.76349,2.64523l2.24957,2.24957l1.55994,1.9066l1.56364,1.90357l1.84699,2.77048l1.96913,1.57531l0.98924,0.96773l1.07106,0.87632l5,5l0.60868,0.74394l0.69507,0.66394l4.74848,5.53989l4.92159,4.2185l7.34852,5.51139l0.60066,0.55196l0.66912,0.46662l6.54832,5.61284l8.53041,6.63477l0.52446,0.49919l0.58964,0.4202l6.31719,5.52754l7.25929,4.35558l10.7273,5.36365l10.57868,4.80849l0.40143,0.23321l0.43384,0.16527l11.06992,5.53496l14.03451,5.6138l0.35493,0.18486l0.38077,0.12312l14.65894,6.41329l21.33137,6.49216l24.72997,6.92439l0.56901,0.22245l0.59594,0.13457l23.48465,7.82822l26.85855,7.67387l25.37259,5.85521l0.31937,0.10813l0.33319,0.05172l26.14583,6.77855l25.75791,4.76998l25.15691,3.87029l25.5309,2.94587l0.05586,0.01217l0.05716,0.00113l25,3l0.12591,0.02804l0.12894,0.00387l21.93025,2.86047l21.37949,0.92954l95.56506,0l26.23005,-1.87358l13.12614,-1.87516l1.77138,-0.07485l1.76416,-0.17642h10.35149l11.41028,-2.44506l1.66823,-0.18666l1.65258,-0.29465l12.92062,-0.99389l11.92066,-0.99339l0.14855,0.00246l0.14641,-0.02528l13.85245,-0.98946l11.85259,-0.98772l0.07998,0.00132l0.07875,-0.01404l12.05387,-0.92722l12.06211,-1.85571l1.90411,-0.10098l1.89732,-0.18973h26.2233l12.24116,-1.74874l0.94236,-0.03982l0.9302,-0.15607l14.36951,-0.95797l15.77594,-1.85599l17.40756,-2.90126l0.68139,-0.04468l0.6678,-0.14256l17.32286,-1.92476l17.07889,-2.84648l15.60381,-2.92571l14.85233,-2.97047l0.40255,-0.03947l0.39038,-0.10587l22.75234,-3.79206l9.7797,-2.66719l1.0664,-0.17931l1.0394,-0.29835l10.52257,-1.9132l8.5263,-1.89473l0.26508,-0.03169l0.25528,-0.07815l9.41665,-1.88333l7.42286,-1.85572l0.32662,-0.0478l0.31351,-0.10332l9,-2l1.17177,-0.1401l1.15062,-0.26217l7.78241,-0.9728l6.49519,-0.92788l4.72848,-0.78808l11.0314,-2.75785l1.92359,-0.2815l0.23355,-0.07431l0.86604,-0.0866l0.86118,-0.12603l0.2446,0.01545l1.93443,-0.19344h0.18544l0.52979,-0.21192l3.77194,-1.08806l0.8216,-0.05963l0.78498,-0.24977l3.90625,-0.39062h32l3.90625,0.39063l8.59375,2.73438l8.59375,7.42188l3.90625,14.45313l-3.90625,14.45313l-8.59375,7.42188l-8.59375,2.73438l-3.90625,0.39063h-27.18544l-0.52979,0.21192l-3.77194,1.08806l-0.8216,0.05963l-0.78498,0.24977l-3.90625,0.39063l-1.92236,0l-9.01425,2.25356l-0.98886,0.14471l-0.96455,0.26157l-6,1l-0.29114,0.01909l-0.2833,0.0698l-7,1l-0.21999,0.0093l-0.21468,0.04891l-6.82931,0.85366l-7.52724,1.67272l-7.68093,1.92023l-0.59016,0.08637l-0.57032,0.17459l-9.73924,1.94785l-8.74041,1.94231l-0.48329,0.05778l-0.46784,0.13429l-9.93678,1.80669l-9.95742,2.71566l-1.24727,0.20972l-1.22069,0.33103l-23.60236,3.93373l-14.60471,2.92094l-0.15054,0.01476l-0.14515,0.04253l-16,3l-0.25257,0.02169l-0.24467,0.06635l-18,3l-0.68139,0.04468l-0.6678,0.14256l-17.32286,1.92476l-17.32796,2.88799l-0.60087,0.0394l-0.58807,0.12952l-17,2l-0.63335,0.01105l-0.62471,0.10482l-14.06003,0.93734l-13.06741,1.86677l-1.77138,0.07485l-1.76416,0.17642l-26.08817,0l-11.1104,1.70929l-0.94872,0.05031l-0.9353,0.16676l-12.92062,0.99389l-11.92066,0.99339l-0.14855,-0.00246l-0.14641,0.02528l-13.85245,0.98946l-11.85259,0.98772l-0.07998,-0.00132l-0.07875,0.01404l-11.32341,0.87103l-12.35578,2.64767l-1.2579,0.14074l-0.07408,0.02357l-1.28551,0.12855l-1.28391,0.14365l-0.07737,-0.00753l-1.25946,0.12595h-11.2233l-12.24116,1.74874l-0.88323,0.03732l-0.87113,0.15041l-28,2l-0.89262,-0.02532l-0.88855,0.08886h-97l-0.54204,-0.0542l-0.54389,0.03061l-23,-1l-1.0685,-0.15398l-1.07905,-0.03242l-22.87266,-2.98339l-24.81599,-2.97792l-25.94347,-2.99348l-0.46282,-0.10085l-0.47301,-0.02508l-26,-4l-0.37002,-0.09539l-0.38079,-0.03185l-27,-5l-0.84859,-0.24657l-0.87323,-0.13556l-26.67479,-6.91569l-25.67264,-5.92446l-0.61136,-0.207l-0.63518,-0.11469l-28,-8l-0.5063,-0.20103l-0.53137,-0.11999l-23.42188,-7.80729l-24.41318,-6.83569l-0.26217,-0.1025l-0.27612,-0.05476l-23,-7l-1.34985,-0.56294l-1.39158,-0.44997l-15.6346,-6.84014l-14.62969,-5.85188l-0.92303,-0.48075l-0.97254,-0.37049l-11.58606,-5.79303l-10.57868,-4.80849l-0.40143,-0.23321l-0.43384,-0.16527l-12,-6l-0.8127,-0.51328l-0.86936,-0.41007l-10,-6l-1.78639,-1.33029l-1.81383,-1.29262l-7.45624,-6.52421l-8.42966,-6.55641l-0.43203,-0.41121l-0.48923,-0.34118l-6.3817,-5.47003l-7.34852,-5.51139l-0.60066,-0.55196l-0.66912,-0.46662l-7,-6l-1.32477,-1.38686l-1.38686,-1.32477l-5.37516,-6.27102l-3.34201,-3.34201l-3.91879,-3.13503l-2.62002,-2.56307l-0.07204,-0.05763l-0.0537,-0.06538l-0.06048,-0.05917l-0.05118,-0.07676l-2.32646,-2.83221l-2.62685,-3.94027l-2.24957,-2.24957l-1.55994,-1.9066l-1.56364,-1.90357l-4,-6l-0.72932,-1.37283l-0.83011,-1.31434l-3,-6l-0.63116,-1.65681l-0.72524,-1.61784l-6,-18l-0.86469,-3.82932l-0.00119,-0.08711l-0.02641,-0.08302l-0.39062,-3.90625v-25l0.11928,-1.19277l-0.0055,-0.05456l0.14385,-1.3289l0.133,-1.33003l0.01663,-0.05225l0.12901,-1.19176l1.06804,-5.07319l-17.36508,-1.92945l-1.64165,-0.35046l-1.66095,-0.24307l-4,-1l-2.69294,-0.9667l-3.64686,-0.92619l-2.10901,-2.36801l-2.92005,-1.8025l-6.53709,-9.28457l-0.11889,-6.26139l-1.24223,-6.13807l4.36732,-10.48157l2.4595,-2.39303l1.54509,-2.76912l3.3591,-1.69525l2.41911,-1.52786l2,-1l2.70153,-1.02915l0.23331,-0.12382l0.37202,-0.10678l0.36169,-0.13779l0.26094,-0.04093l2.77871,-0.79759l11,-2l2.23803,-0.17984l2.2341,-0.22341l18.72329,0l0.15762,-0.57794l0.71667,-1.87032l0.64327,-1.89682l4.59708,-10.11358l3.66725,-10.08493l0.10014,-0.20814l0.06105,-0.22276l5,-13l0.15594,-0.30941l0.10078,-0.3315l5,-12l0.40924,-0.75908l0.307,-0.80587l5.84894,-11.69788l6.85716,-14.69391l0.17322,-0.29141l0.12068,-0.31679l5.46028,-10.92055l4.56676,-11.87358l0.54326,-1.07789l0.4297,-1.12797l4.20544,-8.41088l2.14308,-6.42923l-25.94866,-0.99803l-0.08683,-0.01207l-0.08753,0.00475l-44,-2l-0.18767,-0.02742l-0.18952,0.00742l-32.2445,-1.95421h-34.24312l-3.90625,-0.39062l-8.59375,-2.73437l-8.59375,-7.42187l-3.90625,-14.45312l3.90625,-14.45312l8.59375,-7.42187l8.59375,-2.73437l3.90625,-0.39062l0.33078,0l6.48552,-1.94566l0.89476,-0.17374l0.86568,-0.28528l18,-4l0.66596,-0.07963l0.64732,-0.17555l29.75094,-4.95849l30.69952,-5.75616l100.76183,-27.9894l1.1806,-3.5418l0.72494,-1.61718l0.05312,-0.20758l0.43037,-0.87099l0.39741,-0.88652l0.1262,-0.17316l0.78508,-1.58885l4.73859,-7.58174l1.81045,-3.16828h-16.90279l-26.44578,0.94449l-14.89964,1.86245l-1.55405,0.03837l-1.54681,0.15468h-10l-0.24705,-0.0247l-1.15049,0.18047l-1.91935,-0.48745l-0.58936,-0.05894l-1.41313,-0.44963l-7.08381,-1.79906l-1.55137,-1.74189l-7.13919,-6.16566l-0.71794,-2.65637l-0.54899,-0.61641l-1.13993,-5.6326l-1.49939,-5.54774l0.21537,-0.79685l-0.54582,-2.69701l3.62811,-8.70748l0.60859,-2.25179l5.53138,-4.7771l1.06286,-1.03414l0.50078,-0.31628l1.49872,-1.29435l1.10974,-0.3531l0.20992,-0.13258l6,-3l1.65681,-0.63116l1.61784,-0.72524l8.74772,-2.91591l9.71093,-3.46819l-6.51682,-9.77523l-5.01755,-5.85381l-0.63268,-0.90723l-0.72925,-0.8316l-4.83106,-6.76348l-4.75959,-6.34612l-5.74369,-5.74369l-1.30594,-1.59614l-1.22912,-1.40162l-25.48788,-1.73781l-1.19747,-0.20277l-1.21191,-0.07947l-24,-4l-1.52382,-0.41324l-1.54991,-0.30095l-10,-3l-3.62926,-1.4966l-0.89914,-0.61449l-2.74103,-0.74082l-2.38672,-2.76357l-1.41872,-0.96957l-0.75045,-1.17863l-17.35363,2.552l-0.44293,0.02054l-0.43363,0.09257l-18,2l-1.38379,0.01521l-1.377,0.1377h-10l-3.90625,-0.39062l-0.67328,-0.21423l-2.24178,-0.14159l-3.06561,-1.54713l-2.61308,-0.83143l-1.35756,-1.17244l-3.10098,-1.56498l-1.19876,-2.14844l-2.93644,-2.53602l-1.42924,-5.28819l-1.73057,-3.10154l0.05857,-3.08485l-0.80501,-2.97854l0.92667,-3.42867l0.10399,-5.47694l2.23369,-3.17249l0.6419,-2.37503l2.62883,-2.27035l1.03267,-1.46669l2.33341,-1.44038l2.59884,-2.24445l2.14051,-0.68107l0.60122,-0.37113l3.69488,-1.32637l11.52923,-2.88231l23.53416,-6.86413l1.11441,-0.20754l1.0853,-0.32727l26.59424,-5.20322l-1.31567,-1.64459l-1.74016,-2.68482l-0.1366,-0.166l-0.11868,-0.22787l-0.13974,-0.2156l-0.07708,-0.20069l-1.47793,-2.83763l-0.20353,-0.50883l-0.49329,-0.6029l-0.18388,-0.16203l-0.51983,-0.69806l-0.55114,-0.67362l-0.1126,-0.21769l-1.16113,-1.55923l-1.41657,-2.36094l-1.82378,-1.82378l-2.48592,-3.03835l-0.04002,-0.07738l-0.06075,-0.06244l-2.09631,-3.31916l-2.30394,-4.60787l-2.39586,-3.59379l-3.41907,-4.10289l-5.19812,-5.19812l-1.55994,-1.9066l-1.56364,-1.90357l-7.61509,-11.42263l-2.34934,-3.13245l-3.75604,-4.69505l-0.91301,-1.40864l-1.0026,-1.34634l-2.33647,-3.89412l-0.84281,-1.12375l-0.38214,-0.29722l-0.44819,-0.80988l-0.55306,-0.73741l-2.03125,-3.35937l-0.53995,-1.54881l-0.7942,-1.43513l-0.50958,-1.66461l-0.28862,-0.35275l-0.04002,-0.07738l-0.06075,-0.06244l-2.09631,-3.31916l-2,-4l-0.63116,-1.65681l-0.60472,-1.34898l-0.2047,-0.30704l-1.84178,-3.46688l-0.26245,-0.91287l-0.45991,-0.83107l-1.14912,-3.75379l-0.69476,-3.47378l-0.50781,-1.52343l-0.86469,-3.82932l-0.00119,-0.08711l-0.02641,-0.08302l-0.39062,-3.90625v-17l0.39063,-3.90625l0.02641,-0.08302l0.00119,-0.08711l0.86469,-3.82932l1,-3l0.72524,-1.61784l0.63116,-1.65681l1,-2l2.09631,-3.31916l0.06075,-0.06244l0.04002,-0.07738l2.48592,-3.03835l6,-6l1.9066,-1.55994l1.90357,-1.56364l6,-4l1.37283,-0.72932l1.31434,-0.83011l4,-2l1.31724,-0.50181l0.10483,-0.06471l1.12726,-0.40466l1.11922,-0.42637l0.12171,-0.01909l1.32669,-0.47625l8,-2l0.98886,-0.14471l0.96455,-0.26157l18,-3l2.05789,-0.13494l2.05208,-0.20521h64l1.377,0.1377l1.38379,0.01521l7.62384,0.84709h8.61537l2.2341,0.22341l2.23803,0.17984l11,2l0.46784,0.13429l0.48329,0.05778l8.5263,1.89473l10.52257,1.9132l0.93229,0.2676l0.95791,0.15228l19,5l0.40111,0.1496l0.42025,0.0816l10,3l1.46491,0.60409l1.50485,0.49628l7.55004,3.35557l8.4802,2.54406l1.03028,0.42486l1.07079,0.30888l10,4l0.51278,0.26707l0.54753,0.18568l10.11358,4.59708l21.08493,7.66725l0.87838,0.42262l0.92312,0.31306l10.11358,4.59708l10.08493,3.66725l1.695,0.81552l1.73273,0.73193l9.3445,5.097l9.22777,3.35555l1.695,0.81552l1.73273,0.73193l9.69435,5.28782l8.61912,3.44765l0.92303,0.48075l0.97254,0.37049l10,5l0.58799,0.37136l0.63515,0.28324l7,4l0.70246,0.50024l0.76157,0.40459l6,4l0.83888,0.68908l0.91099,0.59046l4.15283,3.32226l0.71818,0.47879l0.14761,0.08782l2.54435,1.27217l3.31916,2.09631l0.31725,0.30867l1.98285,1.17967l1.87811,2.57694l2.28543,2.22366l0.8874,2.12975l0.2607,0.35771l0.55767,1.24402l0.49469,0.60462l0.85348,1.65006l1.09417,1.5013l1.11529,2.48796h13.77347l0.30446,0.03045l0.30511,-0.02301l41,1l1.05025,0.13096l1.05834,0.00981l64,7l0.26113,0.05528l0.2668,0.00815l84,11l0.0539,0.01261l0.05532,0.00193l5.57165,0.75461l3.64079,-5.17097l2.92005,-1.8025l2.10901,-2.36801l3.64686,-0.92619l2.69294,-0.9667l4,-1l1.92359,-0.2815l0.23355,-0.07431l0.86604,-0.0866l0.86118,-0.12603l0.2446,0.01545l1.93443,-0.19344h71l0.66738,0.06674l0.66999,-0.03094l112,6l0.33953,0.05242l0.3435,-0.00645l35.99146,2.91823h37.60352l25.62384,-2.84709l0.69115,-0.0076l0.68289,-0.10682l36,-2l0.24825,0.01097l0.24622,-0.03353l27.78908,-0.99247l3.83008,-0.20158l2.7514,-3.43925l0.96773,-0.98924l0.87632,-1.07106l3,-3l3.03835,-2.48592l0.07738,-0.04002l0.06244,-0.06075l3.31916,-2.09631l0.20143,-0.10071l0.47891,-0.41361l0.95783,-0.30476l0.36183,-0.18092l3.66855,-1.39754l1.83527,-0.28789l1.77027,-0.56327l3.90625,-0.39062h0.40454l0.993,-0.15576l0.62038,0.15756l1.22763,0.12276l2.2483,-0.45501l5.98941,2.49559l3.01673,0.95987l0.6647,0.57406l0.81072,0.3378l2.20766,2.26898l4.91067,4.24103l0.59849,2.21443l0.66844,1.05836l1,2l0.27078,0.71081l1.86854,0.59453l8.59375,7.42188l3.90625,14.45313l-1.44599,5.35017l4.73166,0.6487l0.372,0.00979l0.31029,0.0393l0.31241,-0.01514l38.73854,1.98659l32.73832,0.99207l0.74991,0.09801l0.75626,-0.00681l20.87063,1.89733h25.86597l3.90625,0.39063l8.59375,2.73438l8.59375,7.42188l0.88293,3.26685l11.84606,1.34614l0.20307,0.04388l0.20767,0.00624l14.27073,1.8614l0.27696,-0.00786l13.11054,0.93647h12.10828l3.90625,0.39063l8.59375,2.73438l8.59375,7.42188l3.90625,14.45313l-3.90625,14.45313l-8.59375,7.42188l-8.59375,2.73438l-3.90625,0.39063h-20l-1.61308,-0.16131l-1.6204,-0.04868l-6.8135,-0.88872l-23.91385,-0.91976l-0.29799,-0.04142l-0.30064,0.0112l-24.10135,-1.50633l-3.24544,12.00814l-8.59375,7.42188l-8.59375,2.73438l-3.90625,0.39063h-10l-1.03556,-0.10356l-1.04058,0.0172l-11.58661,-0.96555l-11.97225,-0.59861l-2.87852,10.65052h2.51351l3.90625,0.39063l8.59375,2.73438l0.42702,0.36879l1.52611,0.41246l3.07736,3.56326l3.56326,3.07736l0.41246,1.52611l0.36879,0.42702l2.73438,8.59375l0.39063,3.90625v2l-0.39062,3.90625l-2.73437,8.59375l-0.36879,0.42702l-0.41246,1.52611l-3.56326,3.07736l-3.07736,3.56326l-1.52611,0.41246l-0.42702,0.36879l-8.59375,2.73438l-3.77685,0.37768l-5.06601,1.2665l-0.80716,0.11812l-0.7841,0.22506l-2.38298,0.43327l0.82449,9.89385l-0.00344,0.208l0.03442,0.20516l0.45774,6.86614l0.59763,0.79684l1.04795,1.73314l0.16599,0.19594l0.391,0.72523l0.42631,0.70505l0.08454,0.24249l0.96114,1.78275l5,12l0.4673,1.53718l0.57487,1.50027l3,11l0.40321,2.39804l0.08707,0.27365l0.06025,0.60254l0.10041,0.59716l-0.012,0.28691l0.24196,2.41963v5.53604l4.75055,0.91946l0.3713,0.11115l0.38468,0.04733l52.765,11.91468l0.22721,0.01549l3.15306,-5.78061l5.45216,-11.81301l3.99268,-9.58243c-1.98177,-0.7555 -3.84268,-1.75585 -5.54575,-2.96408l-2.50942,-1.26644l-0.93855,-1.68207c-4.39499,-4.50547 -7.10291,-10.66426 -7.10291,-17.45551c0,-2.43156 0.34714,-4.78203 0.99456,-7.00458l0.0361,-1.90103l1.60488,-2.27939c1.11995,-2.235 2.56508,-4.2788 4.27333,-6.06937l0.65888,-0.93581l0.8702,-0.53716c3.08454,-2.72995 6.84849,-4.70959 11.00601,-5.65307l11.08854,-2.77214l6.59948,-1.88556l2.69649,-0.48687l0.26529,-0.08441l0.45324,-0.04532l0.44825,-0.08093l0.27827,0.00828l2.72649,-0.27265h7l3.90625,0.39063l8.59375,2.73438l0.42702,0.36879l1.52611,0.41246l3.07736,3.56326l3.56326,3.07736l0.41246,1.52611l0.36879,0.42702l2.73438,8.59375l0.39063,3.90625v9.00561l0.19456,0.99439l-0.36479,1.70236l-0.22039,2.20389l-0.77136,2.42428l-0.53305,2.48757l-0.90208,2.02286l-0.52788,1.65905l-0.66228,0.76685l-1.62901,2.85077l-1.17903,5.30564l-0.60847,1.8464l-0.03798,0.24213l-0.30984,0.81334l-0.27241,0.82663l-0.12321,0.21187l-0.69208,1.81672l-4.61493,9.22986l-4.66883,11.20519l-0.22386,0.41522l-0.15408,0.44585l-0.16072,0.34823l3.84849,0.2138l0.11076,0.01733l0.11204,-0.00395l31,2l0.32471,0.05377l0.32912,-0.00297l20.87063,1.89733h12.86597l2.45122,0.24512l2.45169,0.24036l7.57258,1.51452h3.52451l1.20197,0.1202l3.49366,-0.25563l3.03266,1.74216l4.77171,1.51827l3.99203,3.44766l15.08045,1.56005l0.23064,0.04741l0.23541,0.00522l48.49199,5.9378l36.13699,2.93003l18.64645,0.98139l2.37347,0.36418l2.37595,0.3477l8,2l1.10183,0.39553l1.56848,0.22568l9.69697,5.90809l1.24418,2.71923l4.2945,6.09943l0.0651,3.42877l0.6254,1.36686l-0.5031,5.0747l0.09681,5.09866l-0.73241,1.31264l-0.33832,3.41266l-4.76722,5.73754l-1.45706,2.61135l-10.13723,5.11599l-1.58148,0.09988l-1.12986,0.3064l-5.76356,0.96059l-58.76436,10.95607l-0.76586,0.06499l-0.74964,0.16971l-89,11l-0.48175,0.01123l-0.47373,0.08827l-24.71806,2.09475l-0.93989,1.08829l-1.72279,0.46562l-1.86283,1.24189l-3.46688,1.84178l-1.12299,0.32286l-1.03214,0.54776l-3.77336,1.0831l-2.35869,0.42885l-0.38001,0.10925l-0.13089,-0.01636l-7.22213,1.31311l-26.10637,6.76832l-1.30797,0.20304l-1.2833,0.32429l-47,7l-0.21872,0.01055l-0.21321,0.04994l-48.65274,6.38069l-0.09861,0.09594l-1.58181,0.99904l11.63454,2.15454l0.33711,0.09795l0.34888,0.03904l42,9l0.48464,0.15565l0.50316,0.07709l35,9l0.99874,0.36611l1.03399,0.24976l19.82392,6.93837l8.82302,2.94101l2.21895,0.9947l0.27599,0.07935l0.53477,0.28409l0.55257,0.2477l0.23207,0.16914l2.14747,1.14084l1.16742,0.77828l0.46508,0.14798l0.82283,0.71063l0.54467,0.36312l3.03352,2.49182l0.60907,0.76134l3.58366,3.09498l0.56514,2.09102l0.8758,1.09476l3.03352,10.94233l-2.45925,7.32185l-0.98784,3.65502l20.78767,5.05646l1.4467,0.50895l0.1563,0.02452l1.04518,0.39816l1.05507,0.37117l0.13516,0.08224l1.43314,0.54596l10,5l3.31916,2.09631l1.7299,1.68314l2.90818,1.62268l1.19672,2.37127l0.62884,0.61185l1.51533,3.63679l1.77509,3.51732l0.0553,0.87564l1.02159,2.45182l-0.66059,3.26408l0.15214,2.40881l-0.56844,3.88436l-1,4l-0.36618,1.02007l-0.0839,2.25641l-3.95434,5.40484l-1.65898,2.68754l-0.63379,0.44624l-0.45769,0.62557l-2.71726,1.60985l-5.47583,3.85543l-2.25756,0.04287l-1.02655,0.34757l-13,3l-0.61173,0.07819l-0.59315,0.16881l-13.67468,2.45443l6.35182,5.48567l3.90625,14.45313l-3.90625,14.45313l-8.59375,7.42188l-8.59375,2.73438l-3.90625,0.39063h-11l-1.64838,-0.16484l-1.65571,-0.05446l-13.76949,-1.83593l-28.34297,-0.94477h-40.58345l-0.225,-0.0225l-0.22537,0.01844l-36.4521,-0.65679l-3.00378,11.11398l-8.59375,7.42188l-8.59375,2.73438l-3.90625,0.39063h-10l-1.1289,-0.11289l-1.13449,0.01022l-11,-1l-0.32585,-0.06278l-0.33179,-0.00579l-17,-2l-0.33489,-0.07376l-0.34257,-0.01535l-13.24582,-1.92667l-19.24161,-0.83659l-1.05146,-0.15152l-1.06189,-0.03044l-30.50013,-3.9355l-0.94908,-0.08374l3.1561,0.63122l11.09931,1.84989l7.49395,0.93674l2.40188,0.54726l2.40294,0.5426l0.03279,0.01093l0.96776,0.09678l8.59375,2.73438l8.59375,7.42188l3.90625,14.45313l-3.90625,14.45313l-8.59375,7.42188l-8.59375,2.73438l-3.90625,0.39063h-8l-0.95645,-0.09564l-0.96097,0.02201l-13,-1l-1.37211,-0.24464l-1.38828,-0.12326l-20.33799,-3.8739l-36.24113,-4.89745l-46.65794,-5.95633l-55.66063,-5.96364l-59.9121,-5.99121l-0.13524,-0.02732l-0.13796,-0.00152l-61.62384,-6.84709h-41.61537l-0.62305,-0.06231l-0.62539,0.03111l-39.94338,-1.99717l-39.04907,-1.77496l-4.25911,3.67832l-8.59375,2.73438l-3.90625,0.39063h-28l-0.99443,-0.09944l-0.9992,0.01983l-25,-2l-0.47699,-0.08655l-0.4847,-0.00912l-41.84477,-4.98152l-46.84456,-4.98346l-0.19487,-0.04065l-0.19901,-0.00441l-48.58821,-5.94958l-44.19359,-3.92832l-34.37332,-1.96419l-25.28695,-0.97258h-25.23245l-0.7931,0.33046l-1.63285,-0.33046h-1.86101l-3.90625,-0.39062l-6.70598,-2.13372l-0.56811,-0.11498l-0.11492,-0.10235l-1.20474,-0.38332l-8.59375,-7.42187l-0.32804,-1.21373l-0.93889,-0.8362l-2.79508,-11.00565l0.19592,-1.24898l-0.04015,-0.14857l0.15123,-0.55955l1.09055,-6.95224l1.13699,-2.9846l0.10262,-1.53924l1.18234,-1.52015l0.24253,-0.89734l1.18126,-1.02018l0.64813,-1.0262l1.08491,-1.11505l2.63215,-3.3842l1.43119,-0.79202l1.14068,-1.17237l3.95752,-1.64896l1.36122,-0.7533l1.68368,-0.51541l2.83599,-1.18166l-6.63151,0.0614l-0.11579,-0.0105l-0.11568,0.01157h-83l-0.22705,-0.0227l-0.22742,0.01857l-7.07483,-0.12863zM-212.56811,24.48227l3.85249,-4.81561h-5.78438l-0.38992,-0.03899l-0.39095,0.02679l-64,-2l-0.02592,-0.00341l-0.02608,0.00173l-12.74671,-0.42489l5.00769,7.51153l2.24957,2.24957l2.48592,3.03835l0.04002,0.07738l0.06075,0.06244l1.23946,1.96248l2.3868,2.19327l1.07825,1.51277l1.29549,1.33147l1.73818,2.75212l56.74055,-9.67169zM-141.5,-97.6387v-12.31504l-0.8675,-0.57834l-0.83888,-0.68908l-0.91099,-0.59046l-4.15283,-3.32226l-4.38087,-2.92058l-5.64992,-3.22853l-8.44927,-4.22463l-9.03451,-3.6138l-1.31781,-0.68636l-1.36873,-0.57817l-9.3445,-5.097l-9.22777,-3.35555l-1.695,-0.81552l-1.73273,-0.73193l-9.3445,-5.097l-9.22777,-3.35555l-0.87838,-0.42262l-0.92312,-0.31306l-10.11358,-4.59708l-21.08493,-7.66725l-0.87838,-0.42262l-0.92312,-0.31306l-10.47507,-4.76139l-8.43044,-3.37217l-8.93312,-2.67994l-1.46491,-0.60409l-1.50485,-0.49628l-7.55004,-3.35557l-8.07149,-2.42145l-17.65038,-4.64484l-10.04677,-1.82668l-0.46784,-0.13429l-0.48329,-0.05778l-8.5263,-1.89473l-8.30469,-1.50994h-7.74575l-1.377,-0.1377l-1.38379,-0.01521l-7.62384,-0.84709l-60.54631,0l-14.97427,2.49571l-4.36904,1.09226l-0.15329,0.07665l-1.57247,1.04831l0,5.6343l0.05948,0.26343l0.45503,1.48644l0.12125,0.60623l0.30634,0.57664l0.16914,0.23207l0.2477,0.55257l0.28409,0.53477l0.07935,0.27599l0.9947,2.21895l0.15536,0.46608l0.03667,0.04482l1.08964,0.8475l0.82813,1.49644l0.33672,0.41154l1.55887,3.01381l1.64294,2.96882l0.15565,0.50845l0.78575,1.51912l0.09461,1.29299l0.26578,0.43956l0.77014,1.03419l2.13485,3.55809l2.94955,3.68693l0.21313,0.32883l0.26515,0.28854l3,4l0.35983,0.59511l0.44142,0.53738l6.62685,9.94027l4.24957,4.24957l0.71843,0.87808l0.80943,0.79498l5,6l0.74835,1.10552l0.84737,1.03158l4,6l0.72932,1.37283l0.83011,1.31434l1.18568,2.37136l1.13131,1.13131l1.23106,1.50463l0.18388,0.16203l0.51983,0.69806l0.55114,0.67362l0.1126,0.21769l1.16113,1.55923l1.41657,2.36094l0.82378,0.82378l2.48592,3.03835l0.51819,1.00183l0.7167,0.87093l1.81343,3.48179l0.62411,1.56027l1.68569,2.10712l0.21313,0.32883l0.26515,0.28854l2.76568,3.68758l6.17868,7.72336l4.06024,3.38354l1.46498,1.49162l0.27734,0.26492l7.86097,-2.43316l1.40027,-0.28458l1.37102,-0.40252l69.17952,-13.01077l1.56883,-0.13562l1.55467,-0.25025l78.47256,-4.70835l2.93898,-0.93513l0.5291,-0.05291l1.64371,-0.47257l1.36976,0.17122l0.36368,-0.03637l3.54915,0l0.09017,-0.18034l2.09631,-3.31916l4.90746,-5.04378l0.3569,-0.45672l0.14294,-0.05702l0.88163,-0.90612l10.48157,-4.36732l1.2323,0.24939l1.16781,-0.46581l11.09375,2.42188l1.0295,0.73379l0.15084,0.03053l0.43285,0.3855l5.73056,4.08455l2.65625,2.89063l1.1166,1.48881l1.24408,1.108l0.21149,0.83275l0.42783,0.57044l10.41984,0zM-249.66643,404.60484l0.09913,-0.01983l-0.18848,0.00175zM-236.20271,-36.8309l-19.23215,3.97907l-0.08271,0.00866l-0.07952,0.02434l-5.1416,1.02832l46.62923,1.45716l1.60947,0v-7.41805zM-222.02994,353.89508l3.7294,0.39829l10.44467,-0.09671z" fill="#4195ff" stroke-width="0.5"/><text transform="translate(159.25,39.72122) scale(1.03125,1.03125)" font-size="40" xml:space="preserve" fill="#ff4040" stroke-width="1" font-family="Sans Serif" font-weight="normal" text-anchor="start"><tspan x="0" dy="0">更新计划</tspan></text><text transform="translate(13.75,69.83333) scale(0.5,0.5)" font-size="40" xml:space="preserve" fill="#ff4040" stroke-width="1" font-family="Sans Serif" font-weight="normal" text-anchor="start"><tspan x="0" dy="0">alpha 0.17</tspan><tspan x="0" dy="46.15px">alpha 0.18(.05)</tspan><tspan x="0" dy="46.15px">alpha 0.19</tspan><tspan x="0" dy="46.15px">alpha 0.20(.05)</tspan><tspan x="0" dy="46.15px">...</tspan><tspan x="0" dy="46.15px">alpha 1.0.xx</tspan><tspan x="0" dy="46.15px">alpha 1.0.16.??</tspan><tspan x="0" dy="46.15px">????????????????????????????????????????????????????</tspan><tspan x="0" dy="46.15px">beta</tspan><tspan x="0" dy="46.15px">...</tspan><tspan x="0" dy="46.15px">...</tspan><tspan x="0" dy="46.15px">...</tspan></text><text transform="translate(40.25,349.33333) scale(0.5,0.5)" font-size="40" xml:space="preserve" fill="#ff4040" stroke-width="1" font-family="Sans Serif" font-weight="normal" text-anchor="start"><tspan x="0" dy="0">.05是网页版</tspan></text></g></g></svg>